<?xml version="1.0" encoding="UTF-8"?>
<!DOCTYPE svg PUBLIC "-//W3C//DTD SVG 1.1//EN" "http://www.w3.org/Graphics/SVG/1.1/DTD/svg11.dtd">
<svg xmlns="http://www.w3.org/2000/svg" version="1.1" width="512px" height="512px" style="shape-rendering:geometricPrecision; text-rendering:geometricPrecision; image-rendering:optimizeQuality; fill-rule:evenodd; clip-rule:evenodd" xmlns:xlink="http://www.w3.org/1999/xlink">
<g><path style="opacity:0.948" fill="#000000" d="M 204.5,-0.5 C 213.833,-0.5 223.167,-0.5 232.5,-0.5C 263.863,5.19092 287.53,21.8576 303.5,49.5C 319.47,21.8576 343.137,5.19092 374.5,-0.5C 383.5,-0.5 392.5,-0.5 401.5,-0.5C 406.055,0.5839 410.722,1.75057 415.5,3C 417.378,4.5429 418.878,6.37623 420,8.5C 429.623,50.3043 417.79,84.471 384.5,111C 458.134,145.466 500.467,202.966 511.5,283.5C 511.5,296.833 511.5,310.167 511.5,323.5C 500.733,403.204 459.067,460.37 386.5,495C 366.153,503.502 345.153,509.002 323.5,511.5C 310.167,511.5 296.833,511.5 283.5,511.5C 274.086,510.174 264.586,508.508 255,506.5C 245.735,508.413 236.568,510.08 227.5,511.5C 213.833,511.5 200.167,511.5 186.5,511.5C 110.337,500.85 54.5041,461.517 19,393.5C 8.89352,371.392 2.39352,348.392 -0.5,324.5C -0.5,315.833 -0.5,307.167 -0.5,298.5C 1.04602,295.8 3.37935,293.967 6.5,293C 36.1648,292.5 65.8315,292.333 95.5,292.5C 97.3176,256.883 107.484,223.883 126,193.5C 132,186.833 138,186.833 144,193.5C 145.483,196.702 145.817,200.036 145,203.5C 127.983,230.719 118.483,260.386 116.5,292.5C 213.834,292.333 311.167,292.5 408.5,293C 410.587,293.792 412.421,294.959 414,296.5C 415.65,370.032 387.15,428.866 328.5,473C 319.5,479.169 310.166,484.836 300.5,490C 365.279,490.194 417.113,464.36 456,412.5C 492.758,358.11 500.424,299.777 479,237.5C 451.229,170.735 401.729,130.902 330.5,118C 283.876,111.992 240.543,121.325 200.5,146C 193.064,146.775 188.73,143.442 187.5,136C 187.783,132.641 189.116,129.807 191.5,127.5C 201.477,121.363 211.81,115.863 222.5,111C 189.21,84.471 177.377,50.3043 187,8.5C 188.122,6.37623 189.622,4.5429 191.5,3C 195.974,1.88018 200.307,0.713511 204.5,-0.5 Z M 218.5,19.5 C 248.979,21.5076 271.479,35.8409 286,62.5C 290.548,72.0208 292.548,82.0208 292,92.5C 282.833,83.3333 273.667,74.1667 264.5,65C 258.846,61.8611 253.679,62.6945 249,67.5C 247.087,71.4708 247.087,75.4708 249,79.5C 255.167,85.6667 261.333,91.8333 267.5,98C 261.178,98.9964 255.011,100.496 249,102.5C 216.008,85.5205 201.675,58.5205 206,21.5C 210.268,20.8599 214.435,20.1933 218.5,19.5 Z M 387.5,19.5 C 391.803,20.1658 396.137,20.8325 400.5,21.5C 405.337,58.4936 391.17,85.4936 358,102.5C 351.989,100.496 345.822,98.9964 339.5,98C 346.765,91.4078 353.265,84.2411 359,76.5C 360.371,68.5308 357.038,63.8641 349,62.5C 346.825,63.2546 344.659,64.088 342.5,65C 333.333,74.1667 324.167,83.3333 315,92.5C 315.154,68.6852 324.654,49.5186 343.5,35C 356.766,25.5244 371.432,20.3578 387.5,19.5 Z M 20.5,313.5 C 29.8333,313.5 39.1667,313.5 48.5,313.5C 53.518,368.061 78.8514,410.228 124.5,440C 168.495,465.024 214.495,469.358 262.5,453C 324.412,426.908 359.078,380.408 366.5,313.5C 375.833,313.5 385.167,313.5 394.5,313.5C 388.954,376.459 360.288,425.625 308.5,461C 245.145,498.635 180.812,500.635 115.5,467C 57.8134,432.161 26.1467,380.994 20.5,313.5 Z M 69.5,313.5 C 106.835,313.333 144.168,313.5 181.5,314C 155.32,340.347 128.986,366.514 102.5,392.5C 83.0282,369.868 72.0282,343.535 69.5,313.5 Z M 233.5,314.5 C 270.663,313.502 307.996,313.168 345.5,313.5C 342.473,343.268 331.473,369.601 312.5,392.5C 286.146,366.479 259.812,340.479 233.5,314.5 Z M 217.5,328.5 C 244.299,354.798 270.965,381.298 297.5,408C 274.476,427.626 247.809,438.793 217.5,441.5C 217.5,403.833 217.5,366.167 217.5,328.5 Z M 195.5,329.5 C 196.498,366.663 196.832,403.996 196.5,441.5C 166.392,438.972 140.059,427.806 117.5,408C 143.702,381.965 169.702,355.799 195.5,329.5 Z"/></g>
<g><path style="opacity:0.884" fill="#000000" d="M 159.5,153.5 C 169.99,152.489 174.49,157.155 173,167.5C 170.24,173.297 165.74,175.463 159.5,174C 152.124,169.733 150.624,163.899 155,156.5C 156.652,155.601 158.152,154.601 159.5,153.5 Z"/></g>
<g><path style="opacity:0.896" fill="#000000" d="M 380.5,174.5 C 390.999,174.169 395.166,179.169 393,189.5C 389.22,195.39 384.053,196.89 377.5,194C 373.741,190.257 372.574,185.757 374,180.5C 375.436,177.558 377.603,175.558 380.5,174.5 Z"/></g>
<g><path style="opacity:0.896" fill="#000000" d="M 361.5,221.5 C 371.999,221.169 376.166,226.169 374,236.5C 370.22,242.39 365.053,243.89 358.5,241C 354.741,237.257 353.574,232.757 355,227.5C 356.436,224.558 358.603,222.558 361.5,221.5 Z"/></g>
<g><path style="opacity:0.896" fill="#000000" d="M 419.5,221.5 C 429.999,221.169 434.166,226.169 432,236.5C 428.22,242.39 423.053,243.89 416.5,241C 412.741,237.257 411.574,232.757 413,227.5C 414.436,224.558 416.603,222.558 419.5,221.5 Z"/></g>
</svg>
