<?xml version="1.0" encoding="UTF-8"?>
<!DOCTYPE svg PUBLIC "-//W3C//DTD SVG 1.1//EN" "http://www.w3.org/Graphics/SVG/1.1/DTD/svg11.dtd">
<svg xmlns="http://www.w3.org/2000/svg" version="1.1" width="512px" height="512px" style="shape-rendering:geometricPrecision; text-rendering:geometricPrecision; image-rendering:optimizeQuality; fill-rule:evenodd; clip-rule:evenodd" xmlns:xlink="http://www.w3.org/1999/xlink">
<g><path style="opacity:0.927" fill="#000000" d="M 228.5,-0.5 C 238.167,-0.5 247.833,-0.5 257.5,-0.5C 261.693,0.713511 266.026,1.88018 270.5,3C 272.871,4.74324 274.205,7.07657 274.5,10C 259.061,54.5797 228.061,81.2464 181.5,90C 171.452,91.2825 161.452,91.7825 151.5,91.5C 153.373,98.0324 154.54,104.699 155,111.5C 166.087,114.249 175.421,119.916 183,128.5C 190.662,141.827 200.162,153.66 211.5,164C 236.765,179.265 256.599,199.765 271,225.5C 281.267,216.565 292.1,208.398 303.5,201C 313.204,191.3 321.371,180.467 328,168.5C 345.177,150.199 365.011,146.699 387.5,158C 397.809,165.447 405.642,174.947 411,186.5C 421.661,199.239 434.161,209.739 448.5,218C 487.532,252.913 507.532,296.746 508.5,349.5C 508.414,383.774 499.914,415.774 483,445.5C 459.425,483.208 425.592,505.208 381.5,511.5C 369.833,511.5 358.167,511.5 346.5,511.5C 298.723,504.526 263.223,479.86 240,437.5C 208.539,464.499 172.039,475.666 130.5,471C 73.9157,462.749 35.4157,431.916 15,378.5C -0.299103,333.817 -0.299103,289.15 15,244.5C 29.2033,208.97 52.7033,181.47 85.5,162C 96.6927,150.814 106.359,138.48 114.5,125C 121.259,118.454 129.259,114.287 138.5,112.5C 137.073,91.6505 129.573,73.3172 116,57.5C 114.601,48.1295 118.434,44.6295 127.5,47C 131.714,51.5455 135.547,56.3788 139,61.5C 159.143,26.8594 188.976,6.19269 228.5,-0.5 Z M 229.5,15.5 C 238.173,15.3336 246.84,15.5002 255.5,16C 233.745,58.2165 199.078,77.5498 151.5,74C 167.896,41.7799 193.896,22.2799 229.5,15.5 Z M 141.5,127.5 C 153.565,126.13 163.399,130.13 171,139.5C 178.817,153.302 188.65,165.468 200.5,176C 226.055,190.887 245.388,211.554 258.5,238C 224.45,282.711 212.617,332.877 223,388.5C 225.712,400.022 228.712,411.355 232,422.5C 203.675,448.718 170.175,459.551 131.5,455C 83.8205,447.749 50.6539,421.916 32,377.5C 15.3692,333.478 15.3692,289.478 32,245.5C 45.713,215.207 66.8797,191.707 95.5,175C 107.633,163.538 117.967,150.705 126.5,136.5C 130.812,132.185 135.812,129.185 141.5,127.5 Z M 358.5,167.5 C 370.781,166.315 380.615,170.648 388,180.5C 395.265,193.441 404.432,204.941 415.5,215C 465.253,245.633 490.92,290.466 492.5,349.5C 492.397,387.287 481.23,421.287 459,451.5C 424.755,490.036 382.255,503.536 331.5,492C 296.938,481.972 271.105,461.138 254,429.5C 231.361,381.875 229.694,333.542 249,284.5C 263.177,253.656 285.01,229.823 314.5,213C 324.535,202.97 333.035,191.803 340,179.5C 345.044,173.595 351.211,169.595 358.5,167.5 Z"/></g>
<g><path style="opacity:0.922" fill="#000000" d="M 357.5,192.5 C 365.677,191.281 373.01,193.114 379.5,198C 383.714,202.546 387.547,207.379 391,212.5C 394.589,222.902 391.089,227.068 380.5,225C 376.12,220.289 372.12,215.289 368.5,210C 365.5,208 362.5,208 359.5,210C 346.654,228.183 330.654,242.849 311.5,254C 284.646,276.821 270.146,305.987 268,341.5C 266.663,362.144 269.663,382.144 277,401.5C 281.542,412.085 286.708,422.251 292.5,432C 290.379,440.893 285.546,442.727 278,437.5C 257.945,407.619 249.278,374.619 252,338.5C 256.552,288.526 280.385,251.026 323.5,226C 332.635,216.71 341.302,207.044 349.5,197C 352.191,195.395 354.858,193.895 357.5,192.5 Z"/></g>
<g><path style="opacity:0.926" fill="#000000" d="M 408.5,233.5 C 414.603,233.716 419.936,235.883 424.5,240C 453.97,263.762 470.803,294.595 475,332.5C 479.587,374.172 469.254,411.505 444,444.5C 418.202,472.214 386.369,483.714 348.5,479C 330.59,477.287 314.757,470.787 301,459.5C 298.283,450.88 301.45,447.047 310.5,448C 336.773,464.422 364.773,468.089 394.5,459C 422.102,448.063 440.935,428.563 451,400.5C 466.765,355.844 461.765,313.844 436,274.5C 427.211,263.374 416.878,254.041 405,246.5C 402.348,241.039 403.514,236.706 408.5,233.5 Z"/></g>
<g><path style="opacity:0.885" fill="#000000" d="M 332.5,276.5 C 341.334,278.844 345.167,284.511 344,293.5C 340.508,297.999 336.341,298.665 331.5,295.5C 326.284,291.736 324.451,286.736 326,280.5C 327.792,278.372 329.958,277.039 332.5,276.5 Z"/></g>
<g><path style="opacity:0.876" fill="#000000" d="M 393.5,276.5 C 400.178,277.188 403.012,280.855 402,287.5C 399.449,294.418 394.616,297.585 387.5,297C 383.139,294.774 381.639,291.274 383,286.5C 385.434,281.896 388.934,278.562 393.5,276.5 Z"/></g>
<g><path style="opacity:0.888" fill="#000000" d="M 306.5,307.5 C 314.508,309.421 321.674,313.088 328,318.5C 330.549,327.624 327.049,331.457 317.5,330C 312.833,327.333 308.167,324.667 303.5,322C 299.058,316.044 300.058,311.21 306.5,307.5 Z"/></g>
<g><path style="opacity:0.897" fill="#000000" d="M 416.5,307.5 C 424.642,307.481 427.808,311.481 426,319.5C 421.035,323.79 415.535,327.29 409.5,330C 399.952,330.747 396.785,326.58 400,317.5C 405.408,313.906 410.908,310.573 416.5,307.5 Z"/></g>
<g><path style="opacity:0.911" fill="#000000" d="M 293.5,349.5 C 301.174,349.334 308.841,349.5 316.5,350C 320.212,352.513 321.378,356.013 320,360.5C 318.661,363.094 316.494,364.594 313.5,365C 306.433,365.839 299.433,365.506 292.5,364C 287.395,358.885 287.728,354.052 293.5,349.5 Z"/></g>
<g><path style="opacity:0.907" fill="#000000" d="M 410.5,349.5 C 418.507,349.334 426.507,349.5 434.5,350C 439.405,354.167 439.738,358.667 435.5,363.5C 427.228,365.954 418.895,366.12 410.5,364C 405.232,359.171 405.232,354.337 410.5,349.5 Z"/></g>
<g><path style="opacity:0.891" fill="#000000" d="M 322.5,381.5 C 333.12,380.071 336.62,384.405 333,394.5C 327.833,398.333 322.667,402.167 317.5,406C 307.942,406.722 304.775,402.555 308,393.5C 312.996,389.601 317.829,385.601 322.5,381.5 Z"/></g>
<g><path style="opacity:0.9" fill="#000000" d="M 396.5,381.5 C 399.187,381.336 401.854,381.503 404.5,382C 409.956,385.787 415.123,389.954 420,394.5C 421.875,402.619 418.708,406.452 410.5,406C 404.432,402.601 398.932,398.435 394,393.5C 391.696,388.855 392.529,384.855 396.5,381.5 Z"/></g>
<g><path style="opacity:0.884" fill="#000000" d="M 344.5,407.5 C 353.521,408.747 356.021,413.414 352,421.5C 350.285,423.759 348.452,425.926 346.5,428C 337.087,431.579 332.92,428.412 334,418.5C 336.382,413.621 339.882,409.954 344.5,407.5 Z"/></g>
<g><path style="opacity:0.881" fill="#000000" d="M 379.5,407.5 C 387.007,409.336 392.007,414.003 394.5,421.5C 393.282,428.282 389.282,430.782 382.5,429C 376.322,425.143 373.489,419.643 374,412.5C 375.352,410.251 377.185,408.584 379.5,407.5 Z"/></g>
</svg>
