<?xml version="1.0" encoding="UTF-8"?>
<!DOCTYPE svg PUBLIC "-//W3C//DTD SVG 1.1//EN" "http://www.w3.org/Graphics/SVG/1.1/DTD/svg11.dtd">
<svg xmlns="http://www.w3.org/2000/svg" version="1.1" width="512px" height="512px" style="shape-rendering:geometricPrecision; text-rendering:geometricPrecision; image-rendering:optimizeQuality; fill-rule:evenodd; clip-rule:evenodd" xmlns:xlink="http://www.w3.org/1999/xlink">
<g><path style="opacity:0.942" fill="#000000" d="M 511.5,217.5 C 511.5,225.833 511.5,234.167 511.5,242.5C 457.707,243.368 419.207,219.702 396,171.5C 392.091,161.454 389.258,151.121 387.5,140.5C 371.481,154.512 353.148,164.345 332.5,170C 340.197,180.923 344.197,193.09 344.5,206.5C 376.856,208.352 397.023,225.018 405,256.5C 408.955,283.824 399.788,305.49 377.5,321.5C 393.874,349.401 391.707,375.734 371,400.5C 348.717,420.394 324.05,424.061 297,411.5C 285.34,441.094 263.506,455.261 231.5,454C 222.321,453.163 213.821,450.329 206,445.5C 191.735,471.885 169.568,483.385 139.5,480C 130.133,478.565 121.633,475.065 114,469.5C 96.5682,494.121 73.0682,502.954 43.5,496C 20.2188,487.576 5.55212,471.409 -0.5,447.5C -0.5,439.833 -0.5,432.167 -0.5,424.5C 3.13173,409.016 11.1317,396.183 23.5,386C 10.195,354.557 16.5284,327.89 42.5,306C 46.8333,303.5 51.1667,301 55.5,298.5C 34.9097,278.061 29.4097,254.061 39,226.5C 47.6304,207.868 61.7971,195.702 81.5,190C 66.5444,167.422 65.7111,144.255 79,120.5C 98.4471,93.8781 123.947,85.7114 155.5,96C 165.406,100.077 173.74,106.244 180.5,114.5C 202.241,91.1839 227.908,85.6839 257.5,98C 276.527,108.211 287.527,124.044 290.5,145.5C 299.561,147.134 308.394,149.468 317,152.5C 345.865,148.902 369.532,135.902 388,113.5C 411.301,84.005 422.801,50.3384 422.5,12.5C 428.833,12.5 435.167,12.5 441.5,12.5C 441.631,51.5162 430.297,86.6829 407.5,118C 464.914,127.584 499.581,160.751 511.5,217.5 Z M 123.5,110.5 C 148.717,108.181 165.551,118.847 174,142.5C 178.294,169.082 167.794,186.915 142.5,196C 137.875,197.162 133.208,197.496 128.5,197C 121.58,193.207 114.246,190.54 106.5,189C 91.0783,176.739 85.5783,160.906 90,141.5C 95.948,125.38 107.115,115.047 123.5,110.5 Z M 220.5,110.5 C 247.099,108.464 264.099,120.131 271.5,145.5C 245.669,150.826 228.836,166.159 221,191.5C 212.991,185.916 204.158,182.083 194.5,180C 193.167,178 191.833,176 190.5,174C 195.761,160.344 195.761,146.677 190.5,133C 197.492,121.352 207.492,113.852 220.5,110.5 Z M 406.5,137.5 C 446.098,142.895 473.264,164.228 488,201.5C 490.801,208.671 491.968,216.005 491.5,223.5C 450.737,216.571 423.57,193.571 410,154.5C 408.402,148.909 407.235,143.242 406.5,137.5 Z M 273.5,163.5 C 298.717,161.181 315.551,171.847 324,195.5C 328.362,222.615 317.529,240.449 291.5,249C 289.5,249.667 287.5,249.667 285.5,249C 276.064,244.311 266.064,241.645 255.5,241C 237.233,224.657 233.733,205.49 245,183.5C 252.215,173.433 261.715,166.766 273.5,163.5 Z M 178.5,198.5 C 194.093,197.217 207.26,202.217 218,213.5C 220.94,221.651 224.273,229.651 228,237.5C 229.197,253.764 223.364,266.764 210.5,276.5C 195.866,262.863 178.533,257.196 158.5,259.5C 160.098,244.486 157.098,230.486 149.5,217.5C 150.128,215.742 151.128,214.242 152.5,213C 160.338,209.919 167.338,205.586 173.5,200C 175.382,199.802 177.048,199.302 178.5,198.5 Z M 88.5,207.5 C 116.823,206.01 133.989,219.01 140,246.5C 140.157,272.341 127.657,288.174 102.5,294C 73.238,294.41 56.5713,280.076 52.5,251C 54.8781,228.462 66.8781,213.962 88.5,207.5 Z M 341.5,224.5 C 374.655,228.145 389.489,246.478 386,279.5C 382.686,291.804 375.353,300.804 364,306.5C 349.81,297.077 334.31,293.244 317.5,295C 315.628,283.924 311.295,273.924 304.5,265C 322.989,257.015 335.323,243.515 341.5,224.5 Z M 247.5,260.5 C 271.294,258.64 287.794,268.64 297,290.5C 302.275,312.953 295.108,330.287 275.5,342.5C 261.395,332.48 245.728,328.146 228.5,329.5C 230.508,316.547 228.508,304.213 222.5,292.5C 229.216,286.28 235.049,279.28 240,271.5C 241.467,268.242 242.633,264.908 243.5,261.5C 245.099,261.768 246.432,261.434 247.5,260.5 Z M 163.5,277.5 C 195.815,279.796 211.315,297.129 210,329.5C 209.197,332.244 208.197,334.911 207,337.5C 196.833,343.667 188.667,351.833 182.5,362C 181.128,362.402 179.795,362.902 178.5,363.5C 166.866,357.616 154.533,355.283 141.5,356.5C 140.634,340.058 134.967,325.558 124.5,313C 125.078,311.189 125.578,309.355 126,307.5C 136.154,300.344 144.654,291.511 151.5,281C 155.543,279.509 159.543,278.342 163.5,277.5 Z M 70.5,313.5 C 97.9143,311.767 115.081,324.1 122,350.5C 122.667,354.5 122.667,358.5 122,362.5C 111.762,368.07 103.429,375.737 97,385.5C 86.3942,378.02 74.5608,374.02 61.5,373.5C 54.659,373.941 47.9923,375.274 41.5,377.5C 31.0595,356.398 34.7262,337.898 52.5,322C 58.2079,318.31 64.2079,315.477 70.5,313.5 Z M 320.5,313.5 C 339.434,312.217 353.934,319.55 364,335.5C 374.355,358.242 369.855,377.408 350.5,393C 334.012,403.149 317.678,402.983 301.5,392.5C 300.108,379.658 296.108,367.658 289.5,356.5C 304.151,346.173 313.151,332.173 316.5,314.5C 318.099,314.768 319.432,314.434 320.5,313.5 Z M 232.5,348.5 C 258.816,348.325 274.983,360.992 281,386.5C 281.822,412.002 269.989,428.168 245.5,435C 233.061,436.932 221.895,434.099 212,426.5C 213.522,408.056 208.355,391.889 196.5,378C 203.327,361.765 215.327,351.932 232.5,348.5 Z M 147.5,374.5 C 174.888,376.554 190.221,391.221 193.5,418.5C 190.5,444.833 175.833,459.5 149.5,462.5C 138.889,461.965 129.555,458.299 121.5,451.5C 125.863,432.51 122.53,415.01 111.5,399C 119.256,384.62 131.256,376.453 147.5,374.5 Z M 57.5,392.5 C 90.1227,394.619 105.623,411.952 104,444.5C 96.2456,469.904 79.079,481.404 52.5,479C 26.2569,470.692 15.0902,452.858 19,425.5C 25.3052,406.683 38.1385,395.683 57.5,392.5 Z"/></g>
</svg>
